<svg fill="#ab000d" xmlns="http://www.w3.org/2000/svg" viewBox="0 0 35.51 9">
    <path d="M18,.12,19.18,3l3.08.27a.24.24,0,0,1,.14.42l-2.34,2,.7,3A.24.24,0,0,1,20.4,9l-2.65-1.6L15.11,9a.24.24,0,0,1-.36-.26l.7-3-2.34-2a.24.24,0,0,1,.14-.42L16.33,3,17.53.12a.24.24,0,0,1,.45,0Z"/>
    <path d="M31,.12,32.21,3l3.08.27a.24.24,0,0,1,.14.42l-2.34,2,.7,3a.24.24,0,0,1-.36.26l-2.65-1.6L28.14,9a.24.24,0,0,1-.36-.26l.7-3-2.34-2a.24.24,0,0,1,.14-.42L29.36,3,30.56.12a.24.24,0,0,1,.45,0Z"/>
    <path d="M4.95.12,6.15,3l3.08.27a.24.24,0,0,1,.14.42L7,5.68l.7,3A.24.24,0,0,1,7.37,9L4.72,7.36,2.08,9a.24.24,0,0,1-.36-.26l.7-3-2.34-2a.24.24,0,0,1,.14-.42L3.3,3,4.5.12a.24.24,0,0,1,.45,0Z"/>
</svg>